<svg xmlns="http://www.w3.org/2000/svg" viewBox="0 0 1200 360" role="img" aria-labelledby="title desc">
<title id="title">Cooked Pilot</title>
<desc id="desc">Cooked Pilot neon plane-in-orbit wordmark.</desc>
<defs>
<linearGradient id="cpGradient" x1="0" y1="0" x2="1" y2="0"><stop offset="0" stop-color="#00FFFF"/><stop offset=".24" stop-color="#2BFF88"/><stop offset=".5" stop-color="#FFD166"/><stop offset=".74" stop-color="#FF4FD8"/><stop offset="1" stop-color="#9B5CFF"/></linearGradient>
<linearGradient id="planeFill" x1="0" y1="0" x2="1" y2="1"><stop offset="0" stop-color="#FFFFFF"/><stop offset=".52" stop-color="#BFFBFF"/><stop offset="1" stop-color="#FFD6FA"/></linearGradient>
<filter id="glow" x="-30%" y="-30%" width="160%" height="160%"><feGaussianBlur stdDeviation="3" result="blur"/><feMerge><feMergeNode in="blur"/><feMergeNode in="SourceGraphic"/></feMerge></filter>
</defs>
<rect width="1200" height="360" fill="none"/>
<g transform="translate(58 32)" filter="url(#glow)">
<ellipse cx="150" cy="148" rx="134" ry="78" fill="none" stroke="url(#cpGradient)" stroke-width="9" transform="rotate(-18 150 148)"/>
<ellipse cx="150" cy="148" rx="92" ry="34" fill="none" stroke="#00FFFF" stroke-width="3" opacity=".5" transform="rotate(18 150 148)"/>
<circle cx="50" cy="194" r="7" fill="#FF4FD8"/><circle cx="246" cy="94" r="6" fill="#2BFF88"/>
<g transform="translate(56 105) rotate(-8 96 46)">
<path d="M19 67C70 34 134 18 206 21C219 22 224 35 213 43C168 78 105 94 31 91C17 90 8 75 19 67Z" fill="url(#planeFill)" stroke="#ECFEFF" stroke-width="4"/>
<path d="M79 40L133 4C146-4 158 5 151 19L130 62Z" fill="#00FFFF" stroke="#ECFEFF" stroke-width="3"/>
<path d="M84 72L142 112C154 120 168 111 158 97L130 58Z" fill="#FF4FD8" stroke="#ECFEFF" stroke-width="3"/>
<path d="M30 63L0 38C-8 31-4 18 7 19L58 40Z" fill="#9B5CFF" stroke="#ECFEFF" stroke-width="3"/>
<circle cx="201" cy="32" r="16" fill="none" stroke="#FFD166" stroke-width="5"/>
<path d="M201 12V52M181 32H221" stroke="#FFD166" stroke-width="4" stroke-linecap="round"/>
<circle cx="126" cy="47" r="10" fill="#07111F" stroke="#00FFFF" stroke-width="3"/><circle cx="97" cy="54" r="8" fill="#07111F" stroke="#00FFFF" stroke-width="3"/>
<path d="M52 83C90 104 139 108 190 83" fill="none" stroke="#2BFF88" stroke-width="4" stroke-linecap="round"/>
</g>
<path d="M4 231C62 254 137 255 198 235C234 223 263 205 293 181" fill="none" stroke="url(#cpGradient)" stroke-width="5" stroke-linecap="round" opacity=".72"/>
</g>
<g transform="translate(382 104)">
<text x="0" y="72" font-family="Syne, Inter, Arial Black, Arial, sans-serif" font-size="72" font-weight="800" letter-spacing="3" fill="#F4F7FF">COOKED</text>
<text x="0" y="148" font-family="Syne, Inter, Arial Black, Arial, sans-serif" font-size="72" font-weight="800" letter-spacing="3" fill="url(#cpGradient)">PILOT</text>
<path d="M3 178H360" stroke="url(#cpGradient)" stroke-width="5" stroke-linecap="round"/>
<text x="2" y="218" font-family="JetBrains Mono, monospace" font-size="18" letter-spacing="6" fill="#8FA3C3">MAINTAIN ALTITUDE</text>
</g>
</svg>
